<svg width="39" height="24" viewBox="0 0 39 24" fill="none" xmlns="http://www.w3.org/2000/svg">
<rect width="38.2166" height="24" rx="3" fill="#0E4595"/>
<path fill-rule="evenodd" clip-rule="evenodd" d="M26.7163 7.27072C26.1776 7.06863 25.3336 6.85177 24.2795 6.85177C21.5929 6.85177 19.7004 8.20463 19.6843 10.1436C19.6691 11.577 21.0353 12.3765 22.0666 12.8537C23.125 13.3426 23.4808 13.6544 23.4758 14.0911C23.469 14.7596 22.6306 15.0651 21.8491 15.0651C20.7608 15.0651 20.1827 14.914 19.2897 14.5415L18.9394 14.383L18.5578 16.616C19.1929 16.8945 20.3672 17.1358 21.5864 17.1483C24.4445 17.1483 26.2998 15.8108 26.321 13.7402C26.3313 12.6056 25.6069 11.742 24.0383 11.03C23.0879 10.5686 22.5059 10.2606 22.5121 9.79342C22.5121 9.3788 23.0047 8.93534 24.0691 8.93534C24.9583 8.92158 25.6023 9.11551 26.1041 9.3175L26.3477 9.43266L26.7163 7.27072ZM14.1756 17.0307L15.8755 7.05554H18.5945L16.8935 17.0307H14.1756ZM31.612 7.05554H33.7129L35.9135 17.0243H33.3905C33.3905 17.0243 33.1411 15.8787 33.0598 15.5296C32.8497 15.5296 31.9719 15.5284 31.1468 15.5272L31.1427 15.5272C30.4123 15.5262 29.7241 15.5253 29.5777 15.5253C29.4722 15.7951 29.0052 17.0243 29.0052 17.0243H26.1502L30.1882 7.88275C30.474 7.23322 30.9611 7.05554 31.612 7.05554ZM30.3795 13.4966C30.6044 12.9218 31.4628 10.7082 31.4628 10.7082C31.4551 10.7209 31.5057 10.5897 31.5756 10.4083C31.652 10.21 31.7516 9.95174 31.8233 9.75613L32.007 10.6163C32.007 10.6163 32.5276 12.9972 32.6364 13.4966H30.3795ZM9.20576 13.8579L11.8677 7.05554L11.8677 7.05564H14.7477L10.4673 17.0116L7.59052 17.0149L5.15659 8.29111C6.8826 9.15551 8.42655 10.882 8.92209 12.4756L9.20576 13.8579Z" fill="white"/>
<path d="M6.72205 7.05554H2.33784L2.30304 7.26308C5.71399 8.08876 7.97091 10.0841 8.90778 12.4816L7.9545 7.89768C7.78992 7.26609 7.31247 7.07761 6.72199 7.05559" fill="#F2AE14"/>
</svg>
